<?xml version="1.0" encoding="utf-8"?><svg xmlns="http://www.w3.org/2000/svg" xmlns:xlink="http://www.w3.org/1999/xlink"><symbol viewBox="0 0 56 56" id="caret-down" xmlns="http://www.w3.org/2000/svg"><path d="M41 23.5l-13 13-13-13h26z"/></symbol><symbol viewBox="0 0 56 56" id="cross" xmlns="http://www.w3.org/2000/svg"><path d="M5.498 40.87L40.868 5.5l9.63 9.63-35.37 35.37z"/><path d="M5.498 15.13l9.63-9.63 35.37 35.37-9.63 9.63z"/></symbol><symbol viewBox="0 0 56 56" id="exclamation" xmlns="http://www.w3.org/2000/svg"><path d="M21.14 4h13.72l-1.15 29.71H22.29L21.14 4z"/><circle cx="28" cy="45.14" r="6.86"/></symbol><symbol viewBox="0 0 56 56" id="heart" xmlns="http://www.w3.org/2000/svg"><path d="M28.17 52.8l22.52-22.52A14.81 14.81 0 0 0 29.75 9.34a13.77 13.77 0 0 0-1.58 1.86 15.4 15.4 0 0 0-1.58-1.86A14.81 14.81 0 0 0 5.64 30.28z"/></symbol><symbol viewBox="0 0 56 56" id="info" xmlns="http://www.w3.org/2000/svg"><path d="M28 5.91A22.09 22.09 0 1 1 5.91 28 22.12 22.12 0 0 1 28 5.91M28 1a27 27 0 1 0 27 27A27 27 0 0 0 28 1z"/><path d="M28 13.27a2.9 2.9 0 1 1 0 5.78 2.9 2.9 0 1 1 0-5.78zm-2.8 8.18h5.62v21.28h-5.63z"/></symbol><symbol viewBox="0 0 56 56" id="menu" xmlns="http://www.w3.org/2000/svg"><path d="M0 23h56v10H0zM0 3.17h56v10H0zM0 43h56v10H0z"/></symbol><symbol viewBox="0 0 56 56" id="person" xmlns="http://www.w3.org/2000/svg"><circle cx="28" cy="18" r="11"/><path d="M18.65 32h19.7A10.65 10.65 0 0 1 49 42.65V49H8v-6.35A10.65 10.65 0 0 1 18.65 32z"/></symbol><symbol viewBox="0 0 56 56" id="tick" xmlns="http://www.w3.org/2000/svg"><path d="M11.65 42.578L46.233 7.994l9.419 9.419-34.585 34.584z"/><path d="M.477 31.404l9.419-9.419 20.598 20.598-9.419 9.419z"/></symbol></svg>